# xmcd
#
# Track frame offsets: 
#        150
#        19165
#        35022
#        48110
#        58107
#        74125
#        88805
#        102222
#        114832
#        129252
#        147320
#        162750
#        174520
#        185550
#        206225
#        224050
#        241340
#        262752
#        278590
#        293165
#        312265
#        327590
#
# Disc length: 4567 seconds
#
# Revision: 1
# Processed by: cddbd v1.5.2PL0 Copyright (c) Steve Scherf et al.
# Submitted via: ExactAudioCopy v0.99pb4
#
DISCID=4f11d516
DTITLE=Tony Bennett - Fifty Years - The Artistry of Tony Bennett - CD 
DTITLE=5
DYEAR=2004
DGENRE=Big Band/Pop
TTITLE0=East Of The Sun (West Of The Moon)
TTITLE1=New York, New York
TTITLE2=Steppin' Out With My Baby
TTITLE3=They All Laughed
TTITLE4=They Can't Take That Away From Me
TTITLE5=Speak Low (Live)
TTITLE6=Solitude
TTITLE7=I Wished On The Moon
TTITLE8=When A Woman Loves A Man
TTITLE9=That Ole Devil Called Love
TTITLE10=The Way You Look Tonight
TTITLE11=AC-Cen-T-Chu-Ate The Positive
TTITLE12=Bein' Green
TTITLE13=Mood Indigo
TTITLE14=Day Dream
TTITLE15=Azure
TTITLE16=Sophisticated Lady
TTITLE17=Alright, Okay, You Win
TTITLE18=Let The Good Times Roll
TTITLE19=Evenin'
TTITLE20=La Vie En Rose
TTITLE21=What A Wonderful World
EXTD=
EXTT0=
EXTT1=
EXTT2=
EXTT3=
EXTT4=
EXTT5=
EXTT6=
EXTT7=
EXTT8=
EXTT9=
EXTT10=
EXTT11=
EXTT12=
EXTT13=
EXTT14=
EXTT15=
EXTT16=
EXTT17=
EXTT18=
EXTT19=
EXTT20=
EXTT21=
PLAYORDER=
